<svg xmlns="http://www.w3.org/2000/svg" width="120" height="144" viewBox="8 6 40 48">
  
<path d="M8 54 C8 45 17 40 28 40 C39 40 48 45 48 54 Z" fill="#BF4130"></path>
        <path d="M12 54 C12 47 19 43 28 43 C37 43 44 47 44 54 Z" fill="#FBF4E6"></path>
        <rect x="30" y="40" width="6" height="14" fill="#EFDFC4" transform="rotate(16 33 47)"></rect>
        <rect x="13" y="12" width="30" height="31" rx="10" fill="#F0C9A6"></rect>
        <path d="M10 38 L10 24 L16 24 L16 38 Z" fill="#8C5A38"></path>
        <path d="M40 38 L40 24 L46 24 L46 38 Z" fill="#8C5A38"></path>
        <path d="M10 22 C10 12 18 6 28 6 C38 6 46 12 46 22 Z" fill="#FBF4E6"></path>
        <rect x="10" y="20" width="36" height="7" rx="3.5" fill="#E4623E"></rect>
        <circle cx="22" cy="31" r="2.4" fill="#2B2A33"></circle>
        <circle cx="35" cy="31" r="2.4" fill="#2B2A33"></circle>
</svg>